<mxfile host="app.diagrams.net" modified="2023-06-03T02:24:29.699Z" agent="Mozilla/5.0 (Windows NT 10.0; Win64; x64) AppleWebKit/537.36 (KHTML, like Gecko) Chrome/113.0.0.0 Safari/537.36" version="21.3.7" etag="UGiJ25Xt-UYf7IOHn8M2" type="github">
  <diagram name="Halaman-1" id="KapSE9nh1stqGT7UTejG">
    <mxGraphModel>
      <root>
        <mxCell id="0" />
        <mxCell id="1" parent="0" />
      </root>
    </mxGraphModel>
  </diagram>
</mxfile>
